<?xml version="1.0" encoding="utf-8"?>
<!-- Generator: Adobe Illustrator 18.1.1, SVG Export Plug-In . SVG Version: 6.00 Build 0)  -->
<!DOCTYPE svg PUBLIC "-//W3C//DTD SVG 1.1//EN" "http://www.w3.org/Graphics/SVG/1.1/DTD/svg11.dtd">
<svg version="1.1" id="Lockup_Reverse" xmlns="http://www.w3.org/2000/svg" xmlns:xlink="http://www.w3.org/1999/xlink" x="0px"
	 y="0px" viewBox="0 0 441.7 123.2" enable-background="new 0 0 441.7 123.2" xml:space="preserve">
<g>
	<path fill="#FFFFFF" d="M206.3,50.6c-12.8-4.1-16.9-7.4-16.9-14.7c0-9.5,8.7-13.5,17.1-13.5c5.4,0,10.7,2,14,6.5
		c0.3,0.5,1,0.5,1.4,0.1l6.2-5.4c0.4-0.4,0.5-1,0.1-1.4c-5.8-6.3-13.1-8.6-21.7-8.6c-14,0-27.3,7.7-27.3,23.1
		c0,13.3,8.6,18.3,19.9,22.1c14.3,4.8,20.9,6.4,20.9,16.3c0,9.2-9.3,13.9-17.4,13.9c-6.5,0-13-2.7-16.5-8c-0.3-0.5-1-0.6-1.4-0.2
		l-6.5,5.4c-0.4,0.3-0.5,0.9-0.2,1.4c5.5,7.5,15.1,10.3,24.1,10.3c14.5,0,28.2-7.5,28.2-23.4C230.3,58.7,218.8,54.6,206.3,50.6z"/>
	<path fill="#FFFFFF" d="M267.4,41.5c-7.7,0-14.1,3.4-19,9h-0.2v-6.7c0-0.6-0.4-1-1-1h-6.8c-0.6,0-1,0.4-1,1v76.7c0,0.6,0.4,1,1,1
		h6.8c0.6,0,1-0.4,1-1V86.4h0.2c3.3,6,10.9,10.7,20.4,10.7c14.8,0,26.5-12,26.5-27.8C295.2,53.2,284,41.5,267.4,41.5z M266.9,89
		c-11.4,0-18.8-8.6-18.8-19.7c0-11.1,7.4-19.7,18.8-19.7c11.4,0,18.8,8.6,18.8,19.7C285.7,80.4,278.3,89,266.9,89z"/>
	<path fill="#FFFFFF" d="M345.9,63.9c0-14.9-6.6-22.4-22.2-22.4c-7.4,0-14.9,2.4-20.3,7.4c-0.4,0.4-0.4,1,0,1.4l4.2,4.4
		c0.4,0.4,1,0.4,1.4,0.1c4.1-3.4,9.7-5.1,15-5.1c8.3,0,13.1,4,13.1,11.7v1.6h-3.4c-13,0-33.4,1-33.4,18.6c0,10.3,8.9,15.7,19.7,15.7
		c8,0,13.9-3.8,17.4-9.3h0.2c0,2,0,4.8,0.4,7.1c0.1,0.5,0.5,0.8,1,0.8h6.5c0.6,0,1.1-0.5,1-1.1c-0.4-2.5-0.6-5.4-0.6-8V63.9z
		 M337.1,73.7c-0.2,8.6-5.4,15.9-15.6,15.9c-6.7,0-11.7-2.5-11.7-9.2c0-7.1,7.2-10.2,18.4-10.2h8.8V73.7z"/>
	<path fill="#FFFFFF" d="M386.2,41.8c-1-0.2-1.9-0.3-2.8-0.3c-8.7,0-15.3,4.9-17.6,10.1h-0.2c0-2.6-0.2-5.2-0.2-7.7c0-0.5-0.4-1-1-1
		H358c-0.6,0-1,0.5-1,1c0.1,3.3,0.4,7.1,0.4,11.5v39.4c0,0.6,0.4,1,1,1h6.8c0.6,0,1-0.4,1-1V70c0-12.1,4.8-19.7,15.5-19.7
		c1.2,0,2.5,0.1,3.6,0.4c0.6,0.1,1.2-0.3,1.2-0.9l0.4-6.9C387,42.4,386.7,41.9,386.2,41.8z"/>
	<path fill="#FFFFFF" d="M441.4,94.1l-26.5-27.1l23.7-22.4c0.7-0.6,0.2-1.7-0.7-1.7h-9.2c-0.5,0-1,0.2-1.4,0.6l-23.5,22.7V11.3
		c0-0.6-0.4-1-1-1H396c-0.6,0-1,0.4-1,1v83.5c0,0.6,0.4,1,1,1h6.8c0.6,0,1-0.4,1-1V68l25.7,27.2c0.4,0.4,0.9,0.6,1.5,0.6h9.8
		C441.5,95.8,442,94.7,441.4,94.1z"/>
	<path fill="#FFFFFF" d="M74.7,1.4c-2.9-1.8-6.5-1.8-9.4,0C31.6,22.6,7.3,57.5,0.1,98.3c-0.7,3.9,1.3,7.7,4.8,9.5
		c19.5,9.9,41.7,15.5,65.1,15.5s45.5-5.6,65.1-15.5c3.5-1.8,5.4-5.6,4.8-9.5C132.7,57.5,108.4,22.6,74.7,1.4z M100.4,71.6
		C93.7,81.8,82.2,88,70,88c-12.2,0-23.7-6.2-30.4-16.4c-0.6-1-0.3-2.3,0.7-2.9l5.9-3.4c0.9-0.5,2.1-0.3,2.6,0.6
		c4.7,7,12.7,11.2,21.2,11.2c8.5,0,16.4-4.3,21.2-11.2c0.6-0.9,1.7-1.1,2.6-0.6l5.9,3.4C100.7,69.3,101,70.6,100.4,71.6z"/>
</g>
</svg>
