<?xml version="1.0" encoding="utf-8"?>
<!-- Generator: Adobe Illustrator 18.1.1, SVG Export Plug-In . SVG Version: 6.00 Build 0)  -->
<!DOCTYPE svg PUBLIC "-//W3C//DTD SVG 1.1//EN" "http://www.w3.org/Graphics/SVG/1.1/DTD/svg11.dtd">
<svg version="1.1" id="Mark_Reverse" xmlns="http://www.w3.org/2000/svg" xmlns:xlink="http://www.w3.org/1999/xlink" x="0px"
	 y="0px" viewBox="0 0 139.9 123.2" enable-background="new 0 0 139.9 123.2" xml:space="preserve">
<path fill="#FFFFFF" d="M65.3,1.4C31.6,22.6,7.3,57.5,0.1,98.3c-0.7,3.9,1.3,7.7,4.8,9.5c19.5,9.9,41.7,15.5,65.1,15.5
	s45.5-5.6,65.1-15.5c3.5-1.8,5.4-5.6,4.8-9.5c-7.1-40.8-31.4-75.6-65.1-96.9C71.8-0.5,68.1-0.5,65.3,1.4z M70,88
	c-12.2,0-23.7-6.2-30.4-16.4c-0.6-1-0.3-2.3,0.7-2.9l5.9-3.4c0.9-0.5,2.1-0.3,2.6,0.6c4.7,7,12.7,11.2,21.2,11.2
	c8.5,0,16.4-4.3,21.2-11.2c0.6-0.9,1.7-1.1,2.6-0.6l5.9,3.4c1,0.6,1.3,1.9,0.7,2.9C93.7,81.8,82.2,88,70,88z"/>
</svg>
