<?xml version="1.0" encoding="utf-8"?>
<!-- Generator: Adobe Illustrator 18.1.1, SVG Export Plug-In . SVG Version: 6.00 Build 0)  -->
<!DOCTYPE svg PUBLIC "-//W3C//DTD SVG 1.1//EN" "http://www.w3.org/Graphics/SVG/1.1/DTD/svg11.dtd">
<svg version="1.1" id="Logotype" xmlns="http://www.w3.org/2000/svg" xmlns:xlink="http://www.w3.org/1999/xlink" x="0px" y="0px"
	 viewBox="0 0 263.8 111.3" enable-background="new 0 0 263.8 111.3" xml:space="preserve">
<g>
	<path fill="#8E59CD" d="M28.5,40.4C15.7,36.3,11.6,33,11.6,25.7c0-9.5,8.7-13.5,17.1-13.5c5.4,0,10.7,2,14,6.5
		c0.3,0.5,1,0.5,1.4,0.1l6.2-5.4c0.4-0.4,0.5-1,0.1-1.4c-5.8-6.3-13.1-8.6-21.7-8.6c-14,0-27.3,7.7-27.3,23.1
		c0,13.3,8.6,18.3,19.9,22.1c14.3,4.8,20.9,6.4,20.9,16.3c0,9.2-9.3,13.9-17.4,13.9c-6.5,0-13-2.7-16.5-8c-0.3-0.5-1-0.6-1.4-0.2
		l-6.5,5.4c-0.4,0.3-0.5,0.9-0.2,1.4c5.5,7.5,15.1,10.3,24.1,10.3c14.5,0,28.2-7.5,28.2-23.4C52.5,48.4,40.9,44.3,28.5,40.4z"/>
	<path fill="#8E59CD" d="M89.6,31.2c-7.7,0-14.1,3.4-19,9h-0.2v-6.7c0-0.6-0.4-1-1-1h-6.8c-0.6,0-1,0.4-1,1v76.7c0,0.6,0.4,1,1,1
		h6.8c0.6,0,1-0.4,1-1V76.1h0.2c3.3,6,10.9,10.7,20.4,10.7c14.8,0,26.5-12,26.5-27.8C117.4,43,106.2,31.2,89.6,31.2z M89.1,78.7
		c-11.4,0-18.8-8.6-18.8-19.7c0-11.1,7.4-19.7,18.8-19.7c11.4,0,18.8,8.6,18.8,19.7C107.9,70.1,100.5,78.7,89.1,78.7z"/>
	<path fill="#8E59CD" d="M168.1,53.6c0-14.9-6.6-22.4-22.2-22.4c-7.4,0-14.9,2.4-20.3,7.4c-0.4,0.4-0.4,1,0,1.4l4.2,4.4
		c0.4,0.4,1,0.4,1.4,0.1c4.1-3.4,9.7-5.1,15-5.1c8.3,0,13.1,4,13.1,11.7v1.6h-3.4c-13,0-33.4,1-33.4,18.6c0,10.3,8.9,15.7,19.7,15.7
		c8,0,13.9-3.8,17.4-9.3h0.2c0,2,0,4.8,0.4,7.1c0.1,0.5,0.5,0.8,1,0.8h6.5c0.6,0,1.1-0.5,1-1.1c-0.4-2.5-0.6-5.4-0.6-8V53.6z
		 M159.3,63.5c-0.2,8.6-5.4,15.9-15.6,15.9c-6.7,0-11.7-2.5-11.7-9.2c0-7.1,7.2-10.2,18.4-10.2h8.8V63.5z"/>
	<path fill="#8E59CD" d="M208.4,31.5c-1-0.2-1.9-0.3-2.8-0.3c-8.7,0-15.3,4.9-17.6,10.1h-0.2c0-2.6-0.2-5.2-0.2-7.7c0-0.5-0.4-1-1-1
		h-6.4c-0.6,0-1,0.5-1,1c0.1,3.3,0.4,7.1,0.4,11.5v39.4c0,0.6,0.4,1,1,1h6.8c0.6,0,1-0.4,1-1V59.7c0-12.1,4.8-19.7,15.5-19.7
		c1.2,0,2.5,0.1,3.6,0.4c0.6,0.1,1.2-0.3,1.2-0.9l0.4-6.9C209.2,32.1,208.9,31.7,208.4,31.5z"/>
	<path fill="#8E59CD" d="M263.6,83.8l-26.5-27.1l23.7-22.4c0.7-0.6,0.2-1.7-0.7-1.7h-9.2c-0.5,0-1,0.2-1.4,0.6L226,55.9V1
		c0-0.6-0.4-1-1-1h-6.8c-0.6,0-1,0.4-1,1v83.5c0,0.6,0.4,1,1,1h6.8c0.6,0,1-0.4,1-1V57.7l25.7,27.2c0.4,0.4,0.9,0.6,1.5,0.6h9.8
		C263.7,85.5,264.2,84.5,263.6,83.8z"/>
</g>
</svg>
